<?xml version="1.0" encoding="UTF-8" standalone="no"?>
<!-- Created with Inkscape (http://www.inkscape.org/) -->

<svg
   width="150px"
   height="220px"
   viewBox="0 0 210 200"
   version="1.1"
   id="svg1"
   xml:space="preserve"
   xmlns="http://www.w3.org/2000/svg"
   xmlns:svg="http://www.w3.org/2000/svg"><defs
     id="defs1" /><g
     id="layer1"><path
       style="fill:#000000"
       d="m 91.644057,162.89463 c -13.813869,-0.56054 -19.291915,-1.24161 -25.560996,-3.17794 -1.790131,-0.55291 -6.373487,-2.68441 -6.842901,-3.18229 l -0.272148,-0.28866 0.529167,0.15218 c 0.748949,0.21538 7.346589,1.18329 11.112501,1.63027 1.74625,0.20726 3.549448,0.44321 4.007106,0.52433 0.457657,0.0811 3.136564,0.38495 5.953125,0.67517 2.816561,0.29022 7.383208,0.76336 10.148104,1.05143 8.979365,0.93555 22.801095,1.72597 34.858855,1.99348 l 7.07761,0.15702 v -0.37554 -0.37554 l -3.37344,-0.17205 c -1.85539,-0.0946 -4.69441,-0.17253 -6.30894,-0.17312 -1.61452,-5.9e-4 -4.76968,-0.11528 -7.01145,-0.25487 -2.24178,-0.13959 -6.993,-0.3831 -10.55826,-0.54114 -3.56526,-0.15803 -7.256197,-0.39446 -8.202083,-0.52539 -0.945885,-0.13094 -3.446198,-0.36683 -5.55625,-0.5242 -4.188216,-0.31236 -5.679042,-0.50213 -5.483231,-0.69794 0.113284,-0.11328 4.225769,0.2035 12.27246,0.94533 1.478503,0.13631 6.479124,0.37486 11.112504,0.53013 4.63337,0.15527 9.85306,0.33992 11.59931,0.41033 1.74625,0.0704 9.78297,0.18998 17.85938,0.2657 8.0764,0.0757 14.85024,0.19747 15.05297,0.27055 0.93267,0.33623 -0.33028,0.50694 -4.28505,0.5792 l -4.28563,0.0783 -0.53911,0.65751 -0.5391,0.6575 -23.80256,-0.0402 c -13.09141,-0.0221 -26.124287,-0.1344 -28.961943,-0.24955 z m 36.380213,-2.63102 c -19.93699,-0.87273 -23.56809,-1.071 -31.35313,-1.71192 -2.692135,-0.22164 -6.475393,-0.58491 -8.40724,-0.80728 -1.931846,-0.22236 -4.670284,-0.51069 -6.085417,-0.64074 -6.0785,-0.55862 -16.881214,-1.88319 -20.696929,-2.53776 -1.236927,-0.21218 -3.702274,-0.61199 -5.478549,-0.88846 l -3.229591,-0.50268 -0.944798,-0.72063 c -1.278186,-0.97492 -1.09035,-1.02718 1.487325,-0.41376 6.657463,1.58429 16.37932,2.84248 29.861448,3.86463 2.837657,0.21513 6.350001,0.51601 7.805209,0.66861 4.00166,0.41963 12.784922,1.01506 19.446872,1.31831 8.83276,0.40208 15.96799,0.7654 21.16667,1.0778 2.54662,0.15304 9.72012,0.30073 15.94113,0.32822 l 11.31091,0.05 2e-5,0.43472 c 5e-5,0.74716 -18.24082,1.03178 -30.82393,0.48097 z m -57.017715,-3.03606 c -4.141833,-0.49084 -10.552919,-1.40314 -11.906251,-1.69426 -0.654844,-0.14086 -1.753397,-0.32934 -2.441229,-0.41884 -0.687832,-0.0895 -1.319937,-0.27491 -1.404678,-0.41202 l -0.154073,-0.2493 0.346344,0.002 c 0.190489,8.4e-4 1.715563,0.24407 3.389053,0.54051 4.487207,0.79487 7.424986,1.25305 10.980209,1.71248 1.74625,0.22566 3.710781,0.51102 4.365625,0.63412 l 1.190625,0.22381 -0.79375,-0.004 c -0.436562,-0.002 -2.043906,-0.15255 -3.571875,-0.33362 z m 89.826045,-0.0215 c -1.04666,-0.39442 -5.12861,-1.76144 -8.20208,-2.74682 -7.29801,-2.3398 -21.28747,-5.51265 -29.8624,-6.77287 -1.43567,-0.211 -2.69311,-0.43481 -2.79432,-0.49736 -0.10122,-0.0626 -1.65772,-0.30605 -3.45891,-0.54111 -1.80118,-0.23505 -3.35297,-0.47564 -3.44841,-0.53462 -0.0954,-0.059 -2.29861,-0.29339 -4.89593,-0.52089 -5.32122,-0.4661 -6.6152,-0.81974 -1.97441,-0.53961 7.77359,0.46924 23.35092,2.7022 32.14688,4.60816 8.89919,1.92832 16.9105,4.43969 22.55573,7.0707 1.95945,0.91323 1.91646,1.22155 -0.0661,0.47442 z m -0.83053,-2.88286 c -6.57273,-2.80703 -17.64549,-5.87416 -27.66567,-7.66331 -1.2075,-0.21561 -3.2075,-0.57529 -4.44442,-0.79928 -9.38538,-1.69963 -22.34331,-3.14113 -32.543756,-3.62033 l -6.482293,-0.30453 -14.022917,-0.0252 c -7.712605,-0.0138 -17.118543,0.0565 -20.902085,0.15639 l -6.879168,0.18157 2.513542,-0.35999 c 1.382448,-0.198 4.716199,-0.49162 7.408334,-0.65249 2.692136,-0.16088 6.355557,-0.40801 8.140936,-0.54918 1.785379,-0.14118 6.07163,-0.27206 9.525001,-0.29084 3.453371,-0.0188 8.064794,-0.10809 10.247607,-0.19844 l 3.96875,-0.16428 -4.101042,-0.19641 c -2.255573,-0.10802 -5.083307,-0.2745 -6.283854,-0.36994 l -2.182813,-0.17354 v -0.25719 -0.25719 l 3.241146,0.17237 c 1.782631,0.0948 9.827258,0.28799 17.876951,0.42929 l 14.635801,0.25692 2.41905,-0.27403 c 3.06256,-0.34693 3.59256,-0.47852 4.50917,-1.11953 l 0.74566,-0.52145 1.63559,0.31884 c 2.91683,0.56862 9.71811,2.65385 15.52622,4.76026 2.91587,1.05749 4.1997,1.50926 4.99881,1.75905 1.31654,0.41152 -0.64007,0.26526 -5.55121,-0.41497 -3.11592,-0.43159 -7.57031,-1.03629 -9.89864,-1.34378 -2.32834,-0.3075 -5.27519,-0.72883 -6.54856,-0.93629 -2.70524,-0.44075 -3.10873,-0.45919 -3.10873,-0.14207 0,0.12933 0.44648,0.31443 0.99218,0.41133 0.54571,0.0969 1.70657,0.34079 2.57969,0.54197 0.87313,0.20117 2.54,0.56094 3.70417,0.79948 10.66944,2.18619 22.78818,5.33361 29.36875,7.62749 5.24507,1.82836 8.64337,3.31546 9.51177,4.16238 l 0.25136,0.24513 -0.25136,-0.0213 c -0.13824,-0.0117 -1.45853,-0.53684 -2.93397,-1.16696 z m -63.33093,-9.73569 -3.307292,-0.26039 -24.209377,-0.0192 -24.209376,-0.0192 2.910416,-0.24452 2.910417,-0.24453 15.74271,-0.0201 15.74271,-0.0201 9.016506,0.33513 c 4.959078,0.18432 9.602516,0.43325 10.318746,0.55317 l 1.30225,0.21803 -1.45521,-0.009 c -0.80036,-0.005 -2.943489,-0.12616 -4.7625,-0.26938 z m -8.598959,-6.71538 c 0.291042,-0.21343 1.690899,-1.21345 3.110793,-2.22228 l 2.581625,-1.83424 0.99025,0.0196 c 0.544637,0.0108 1.516398,0.10009 2.159469,0.19844 l 1.169219,0.17883 -2.599333,1.92836 -2.599334,1.92837 -2.670928,0.0955 -2.670927,0.0955 z m 7.033508,0.3312 c 0.06063,-0.0606 0.94368,-0.72501 1.962326,-1.47644 1.018646,-0.75144 1.947297,-1.53529 2.063669,-1.74189 l 0.211584,-0.37564 h 0.745942 c 0.68801,0 4.64475,0.61079 6.04928,0.93381 l 0.60382,0.13887 -1.13298,1.31561 -1.13298,1.31562 -4.740452,1.3e-4 c -2.607249,7e-5 -4.690843,-0.0495 -4.630209,-0.11007 z m 10.836881,-0.0882 c 0.006,-0.10914 0.42205,-0.66392 0.92443,-1.23285 l 0.91342,-1.0344 2.5813,0.55313 c 1.41971,0.30422 3.32544,0.69668 4.23494,0.87212 2.12958,0.4108 2.09192,0.65794 -0.13229,0.868 -2.47645,0.23389 -8.5352,0.2154 -8.5218,-0.026 z m -25.940181,-0.16323 c 0,-0.0534 0.803672,-0.65071 1.785938,-1.32735 0.982265,-0.67665 2.619375,-1.82903 3.638021,-2.56085 l 1.852083,-1.33058 1.852084,0.16337 c 2.909802,0.25667 3.430673,0.5369 2.113482,1.13705 -0.365553,0.16656 -1.857949,1.13817 -3.316435,2.15914 l -2.651793,1.8563 h -2.63669 c -1.45018,0 -2.63669,-0.0437 -2.63669,-0.0971 z"
       id="path1" /></g></svg>
